<svg id="svg" version="1.1" xmlns="http://www.w3.org/2000/svg" xmlns:xlink="http://www.w3.org/1999/xlink" width="400" height="318.54545454545456" viewBox="0, 0, 400,318.54545454545456"><g id="svgg"><path id="path0" d="M300.558 34.139 C 294.861 34.277,288.470 34.438,286.357 34.497 L 282.516 34.605 277.593 37.587 C 272.346 40.764,268.599 43.048,264.223 45.736 C 262.733 46.651,259.032 48.891,255.999 50.712 C 250.011 54.308,250.368 53.933,248.737 58.327 C 248.249 59.641,247.758 60.861,247.647 61.036 C 247.536 61.211,247.250 62.000,247.012 62.789 C 246.774 63.578,246.486 64.367,246.372 64.542 C 246.258 64.717,245.911 65.578,245.601 66.454 C 244.934 68.335,242.285 75.417,241.906 76.335 C 241.761 76.685,241.116 78.406,240.474 80.159 C 239.046 84.055,238.945 84.318,238.291 85.828 C 238.004 86.491,237.769 87.217,237.769 87.441 C 237.769 87.884,234.264 91.342,229.482 95.618 C 227.817 97.107,225.880 98.841,225.179 99.472 C 217.993 105.938,215.861 107.862,213.421 110.086 C 211.863 111.507,210.146 113.028,209.606 113.466 C 208.431 114.420,208.282 114.570,203.856 119.219 C 201.945 121.226,198.718 124.591,196.685 126.697 C 194.652 128.803,191.410 132.175,189.482 134.190 C 187.554 136.205,183.905 140.004,181.374 142.632 C 178.843 145.260,175.471 148.773,173.880 150.438 C 172.289 152.104,168.049 156.530,164.458 160.275 C 160.867 164.019,157.813 167.284,157.672 167.529 C 157.531 167.774,157.100 168.297,156.716 168.690 C 156.331 169.084,155.280 170.266,154.381 171.317 C 153.481 172.367,151.825 174.303,150.700 175.618 C 148.786 177.856,144.563 182.901,140.578 187.710 C 139.625 188.860,138.760 189.873,138.655 189.960 C 138.549 190.048,135.749 193.347,132.430 197.291 C 129.112 201.235,126.320 204.534,126.226 204.622 C 126.133 204.709,125.487 205.498,124.792 206.375 C 124.096 207.251,123.444 208.040,123.341 208.127 C 123.238 208.215,121.301 210.510,119.037 213.227 C 116.772 215.944,114.842 218.239,114.748 218.327 C 114.655 218.414,113.790 219.416,112.827 220.552 C 111.864 221.689,110.764 222.980,110.382 223.421 C 110.001 223.862,107.986 226.303,105.904 228.845 C 102.524 232.971,97.395 237.450,96.049 237.450 C 95.983 237.450,95.106 238.001,94.100 238.674 C 93.094 239.347,87.753 242.803,82.231 246.354 C 68.974 254.878,55.746 263.451,45.100 270.416 C 40.897 273.166,37.255 275.524,14.746 290.067 L 5.578 295.991 5.485 298.803 C 5.434 300.350,5.529 301.752,5.697 301.920 C 5.971 302.194,12.137 299.288,17.371 296.419 C 18.247 295.939,20.900 294.538,23.267 293.306 C 25.633 292.074,28.574 290.532,29.801 289.878 C 32.245 288.577,36.581 286.280,40.797 284.054 C 42.287 283.268,44.223 282.234,45.100 281.758 C 45.976 281.282,48.414 279.988,50.518 278.882 C 52.622 277.777,55.131 276.447,56.096 275.928 C 57.060 275.408,59.139 274.306,60.717 273.478 C 68.009 269.653,70.737 268.214,72.510 267.256 C 73.562 266.688,75.857 265.467,77.610 264.544 C 79.363 263.620,81.514 262.471,82.390 261.991 C 83.267 261.512,85.060 260.548,86.375 259.851 C 87.689 259.153,89.298 258.279,89.950 257.908 C 90.602 257.537,92.108 256.705,93.297 256.059 C 96.043 254.567,97.677 253.664,99.283 252.753 C 99.984 252.355,101.562 251.493,102.789 250.837 C 104.016 250.181,105.522 249.364,106.135 249.022 C 107.611 248.199,113.250 245.070,115.060 244.070 C 115.849 243.634,117.027 242.975,117.679 242.606 C 118.331 242.236,119.837 241.406,121.026 240.760 C 122.215 240.114,123.797 239.249,124.542 238.837 C 125.865 238.105,127.291 237.318,130.518 235.538 C 131.394 235.054,132.829 234.268,133.705 233.790 C 138.367 231.248,139.525 230.590,140.387 229.994 C 140.907 229.635,142.054 229.245,142.937 229.127 C 143.820 229.009,145.402 228.741,146.454 228.531 C 147.506 228.320,148.940 228.037,149.641 227.902 C 150.343 227.766,152.422 227.351,154.263 226.979 C 156.104 226.608,158.398 226.147,159.363 225.955 C 160.327 225.763,161.725 225.455,162.470 225.271 C 163.456 225.028,164.236 225.041,165.339 225.320 C 166.171 225.530,167.462 225.835,168.207 225.998 C 171.114 226.634,172.347 226.912,174.343 227.380 C 177.687 228.163,180.109 228.765,182.151 229.318 C 183.203 229.603,186.215 230.394,188.845 231.076 C 191.474 231.757,194.486 232.553,195.538 232.845 C 197.251 233.319,198.041 233.502,201.195 234.154 C 202.017 234.324,202.072 234.440,202.072 236.005 C 202.072 236.923,202.205 238.090,202.368 238.598 C 202.531 239.106,202.833 242.677,203.038 246.534 C 203.403 253.382,203.734 259.572,204.178 267.840 C 204.323 270.528,204.286 272.007,204.071 272.143 C 203.702 272.378,202.597 273.175,200.674 274.593 C 199.953 275.125,197.032 277.190,194.183 279.183 C 187.110 284.128,187.103 284.146,192.510 283.159 C 195.667 282.582,197.568 282.257,200.595 281.775 C 201.798 281.583,202.919 281.342,203.085 281.239 C 203.462 281.007,225.978 281.047,236.494 281.299 C 244.466 281.491,245.850 281.157,241.275 280.149 C 240.661 280.014,236.717 279.014,232.510 277.928 C 228.303 276.842,224.359 275.838,223.745 275.696 C 223.131 275.555,220.784 274.959,218.528 274.373 L 214.427 273.307 214.293 269.641 C 214.071 263.594,213.661 238.273,213.779 237.907 C 213.899 237.532,225.847 236.477,229.861 236.488 L 232.311 236.494 234.059 238.486 C 235.020 239.582,238.067 243.203,240.829 246.534 C 243.591 249.865,245.933 252.661,246.033 252.749 C 246.133 252.837,246.789 253.625,247.490 254.502 C 249.322 256.793,249.900 257.491,251.170 258.945 C 251.792 259.657,253.298 261.457,254.517 262.945 C 257.161 266.173,257.188 266.206,260.055 269.619 C 261.295 271.096,262.311 272.405,262.311 272.528 C 262.311 272.710,255.718 277.853,251.301 281.116 C 249.092 282.748,250.437 283.128,254.661 282.065 C 255.275 281.911,257.785 281.411,260.239 280.956 C 262.693 280.500,265.323 279.969,266.083 279.776 C 267.035 279.533,270.054 279.495,275.804 279.653 C 309.235 280.572,309.245 280.571,298.008 277.933 C 297.394 277.789,296.032 277.427,294.980 277.128 C 292.165 276.329,290.967 276.005,289.721 275.707 C 289.108 275.560,287.745 275.204,286.693 274.915 C 285.641 274.626,283.705 274.097,282.390 273.740 C 281.076 273.383,279.570 272.972,279.044 272.828 C 278.518 272.684,276.755 272.208,275.125 271.771 C 271.237 270.726,272.283 271.747,261.339 258.327 C 256.049 251.841,250.482 245.033,248.968 243.199 C 245.351 238.818,244.121 237.106,244.338 236.756 C 244.498 236.497,249.072 234.263,249.441 234.263 C 249.524 234.263,250.964 233.618,252.641 232.829 C 254.318 232.040,255.742 231.394,255.805 231.394 C 255.868 231.394,256.860 230.964,258.008 230.438 C 259.156 229.912,260.153 229.482,260.224 229.482 C 260.294 229.482,261.439 228.980,262.767 228.367 C 264.095 227.753,265.245 227.251,265.322 227.251 C 266.674 227.251,273.673 223.113,277.928 219.798 C 283.176 215.710,283.519 215.439,285.065 214.163 C 285.610 213.713,289.068 210.993,292.749 208.117 C 300.041 202.422,299.769 202.652,300.830 201.275 C 301.235 200.749,302.095 199.745,302.742 199.044 C 303.388 198.343,305.416 196.048,307.247 193.944 C 309.079 191.841,310.654 190.048,310.747 189.960 C 310.840 189.873,311.992 188.582,313.307 187.092 C 314.622 185.602,315.769 184.311,315.857 184.223 C 315.945 184.135,317.734 182.127,319.833 179.761 C 321.931 177.394,323.724 175.386,323.816 175.299 C 323.909 175.211,324.917 174.064,326.056 172.749 C 327.195 171.434,328.199 170.287,328.287 170.199 C 329.245 169.243,329.319 168.962,330.189 163.028 C 330.343 161.976,330.760 159.394,331.117 157.291 C 331.473 155.187,331.924 152.462,332.118 151.235 C 332.312 150.008,332.599 148.215,332.757 147.251 C 332.914 146.287,333.189 144.566,333.367 143.426 C 333.545 142.287,334.044 139.203,334.476 136.574 C 335.302 131.543,335.791 127.816,335.680 127.404 C 335.606 127.133,335.067 123.833,334.808 122.072 C 334.718 121.458,334.505 120.239,334.335 119.363 C 333.819 116.707,332.655 109.785,331.841 104.542 C 331.041 99.392,330.419 96.336,329.977 95.388 C 329.507 94.381,329.535 94.285,331.546 90.129 C 332.672 87.801,334.085 84.840,334.685 83.548 C 335.286 82.256,336.422 79.889,337.211 78.289 L 338.645 75.378 340.558 74.976 C 341.610 74.754,343.187 74.432,344.064 74.259 C 345.813 73.915,347.005 73.654,350.598 72.826 C 351.912 72.523,353.562 72.164,354.263 72.029 C 355.708 71.750,357.712 71.317,360.956 70.583 C 362.183 70.305,363.725 69.997,364.382 69.897 C 366.480 69.581,365.893 68.995,362.231 67.755 C 360.829 67.279,359.394 66.768,359.044 66.618 C 358.420 66.352,354.407 64.908,352.829 64.382 C 351.255 63.858,347.238 62.414,346.614 62.147 C 346.263 61.997,345.448 61.696,344.802 61.479 C 343.678 61.099,343.476 60.780,340.088 54.047 L 336.548 47.012 332.717 44.622 C 330.610 43.307,328.500 42.015,328.029 41.752 C 326.112 40.680,316.299 34.618,315.831 34.217 C 315.498 33.930,314.585 33.802,313.122 33.837 C 311.909 33.866,306.255 34.002,300.558 34.139 " stroke="none" fill="#000000" fill-rule="evenodd"></path></g></svg>